<?xml version="1.0" encoding="UTF-8"?>
<svg id="Capa_2" data-name="Capa 2" xmlns="http://www.w3.org/2000/svg" viewBox="0 0 145.01 144.28">
  <defs>
    <style>
      .cls-1 {
        fill: #fff;
      }
    </style>
  </defs>
  <g id="Capa_1-2" data-name="Capa 1">
    <g>
      <path class="cls-1" d="m144.95,53.61c0-1.14-.12-2.27-.25-4.41-5.54,7.29-10.69,13.42-10.43,22.56.38,13.74.04,27.5.15,41.25.02,2.7-.63,4.34-3.21,5.64-6.79,3.41-13.39,7.19-20.08,10.79-.86.46-1.83.72-3.26,1.26v-31.06h-5.35v30.73c-8.96-5.78-17.16-11.2-25.5-16.38-2.35-1.46-3.17-3.13-3.11-5.83.17-7.45.06-14.9.06-22.51h-5.21c0,7.83-.09,15.42.05,23.01.05,2.41-.64,3.92-2.74,5.2-4.21,2.56-8.27,5.38-12.38,8.11-4.06,2.68-8.11,5.38-13.02,8.63v-30.94h-5.31v31.35c-7.6-4.34-14.46-8.41-21.49-12.19-2.61-1.4-3.39-3.11-3.38-6,.11-23.76.06-47.52.07-71.29,0-1.28.13-2.56.23-4.39,5.02,2.68,9.37,5.67,14.17,7.41,8.56,3.11,12.36,8.28,10.77,17.62-.81,4.74-.14,9.73-.14,14.81,2.12-.11,3.52-.18,5.22-.27,0-7.8.08-15.26-.05-22.71-.04-2.41.57-3.82,2.89-4.96,7.3-3.58,14.45-7.47,21.67-11.21.98-.51,2.05-.83,3.63-1.45v27.27h5.08v-27.53c8.17,4.09,15.7,7.85,23.24,11.62-.81-2.32-2.67-3.99-3.16-5.99-2.49-10.24-11.04-13.48-19.19-17.28-.36-.17-.71-.52-1.07-.52-1.71-.02-3.69-.51-5.07.17-8.01,3.94-16.09,7.83-23.74,12.41-4.83,2.89-8.87,3.22-13.35-.2-1.67-1.28-3.73-2.05-5.62-3.05C17.65,28.8,9.21,24.31.33,19.58c-.19,1.14-.31,1.52-.31,1.91C0,54.46-.04,87.44.11,120.41c0,1.41,1.4,3.37,2.71,4.14,10.79,6.37,21.76,12.44,32.56,18.81,2.35,1.39,3.97,1.15,6.08-.29,8.93-6.08,17.98-11.98,26.92-18.05,2.09-1.42,3.63-1.79,5.98-.19,9.04,6.15,18.33,11.93,27.4,18.04,2.38,1.6,4.21,1.85,6.78.38,11.01-6.26,22.08-12.42,33.27-18.36,2.55-1.35,3.23-2.9,3.22-5.59-.1-21.89-.05-43.79-.06-65.68Z"/>
      <path class="cls-1" d="m108.21,43.17c6.4,8.21,11.58,16.89,13.62,28.09,1.5-4.48,2.17-8.59,4.15-11.93,4.4-7.4,9.38-14.47,14.26-21.57,6.65-9.67,6.34-21.65-.94-29.95C132.38-.06,120.76-2.28,111.62,2.52c-9.81,5.16-14.89,15.79-11.55,26.66,1.54,5.03,4.83,9.75,8.14,13.98Zm13.71-28.99c4.38-.09,8.2,3.54,8.35,7.94.15,4.45-3.36,8.2-7.84,8.37-4.65.18-8.56-3.48-8.61-8.06-.05-4.3,3.75-8.16,8.1-8.25Z"/>
      <path class="cls-1" d="m116.18,83.5c.06,3.23,2.64,5.78,5.88,5.82,3.43.04,6.12-2.66,6.04-6.05-.08-3.22-2.67-5.78-5.89-5.82-3.44-.04-6.09,2.62-6.04,6.05Z"/>
      <path class="cls-1" d="m16.97,83.26c-.06,3.47,2.54,6.09,5.99,6.05,3.25-.04,5.79-2.57,5.84-5.81.05-3.42-2.61-6.1-6.02-6.05-3.29.05-5.76,2.51-5.81,5.81Z"/>
      <path class="cls-1" d="m92.53,87.23c1.29-2.25,2.38-4.15,3.62-6.31-3.54-2.02-6.81-3.89-10.23-5.84-1.25,2.17-2.31,3.98-3.67,6.33,3.59,2.03,6.85,3.88,10.28,5.82Z"/>
      <path class="cls-1" d="m52.62,87.1c3.45-2.06,6.61-3.94,10.12-6.03-1.34-2.21-2.55-4.18-3.82-6.28-3.5,2.13-6.65,4.05-10.03,6.12,1.3,2.15,2.43,4.03,3.74,6.19Z"/>
      <path class="cls-1" d="m67.95,77.83h9.19c.76-1.94,1.56-3.98,2.71-6.91h-14.62c1.17,2.98,1.98,5.04,2.72,6.91Z"/>
      <path class="cls-1" d="m101.6,84.15c-.94,2.06-1.8,3.94-3.28,7.18h13.98c.52-9.22-6.5-5.5-10.7-7.18Z"/>
      <path class="cls-1" d="m32.79,91.31h13.86c-1.38-3.21-2.23-5.21-3.07-7.16-4.51,1.31-11.27-1.79-10.79,7.16Z"/>
    </g>
  </g>
</svg>