<?xml version="1.0" encoding="UTF-8"?>
<svg id="Capa_2" data-name="Capa 2" xmlns="http://www.w3.org/2000/svg" viewBox="0 0 173.17 153.19">
  <defs>
    <style>
      .cls-1 {
        fill: #fff;
      }
    </style>
  </defs>
  <g id="Capa_1-2" data-name="Capa 1">
    <g>
      <path class="cls-1" d="m173.15,80.23c-.03-5.32-3.37-9.54-8.49-10.76-1.23-.29-2.5-.39-3.73-.58C157.71,28.51,123.2.25,87.87,0c-16.87-.12-32.18,4.64-45.59,14.85-17.85,13.58-27.64,31.8-29.94,54.09-.68.06-1.23.11-1.78.17C4.02,69.82.02,74.23,0,80.78c-.01,6.87,0,13.73,0,20.6-.01,4.64,2.08,8.08,6.25,9.89,2.04.89,4.46,1.16,6.72,1.23,5.48.17,10.97.05,16.58.05v-43.5h-11.57C20.28,36.6,47.83,5.08,87.21,5.48c40.09.41,66.07,33.06,67.92,63.61h-11.52v43.51h9.65c-3.76,13.48-13.66,23.96-27.23,28.09-.16-.17-.32-.34-.48-.52-2.83-3.22-6.47-4.14-9.87-2.51-3.36,1.61-5.16,5.02-4.58,8.67.61,3.8,3.4,6.41,7.28,6.83,3.58.38,6.73-1.74,8.42-5.46.37-.81,1.23-1.64,2.05-1.96,4.04-1.58,7.82-3.55,11.29-6.02h0s7.26-4.7,12.77-13.38c.6-.7,1.06-1.63,1.5-2.55.74-1.36,1.42-2.8,2.02-4.33h0c1.02-2.25,2.03-4.53,3.1-6.9.5,0,1.21,0,1.93,0,7.09-.09,11.68-4.68,11.69-11.72.01-6.87.03-13.73,0-20.6Zm-152.94-5.64c.4,0,.8.02,1.2-.01,3.55-.29,3.69.02,3.19,3.75-.33,2.43-.25,4.92-.26,7.39-.03,7-.01,14.01-.01,21.3-4.85,0-9.31.15-13.76-.05-3.21-.15-5.16-2.49-5.18-5.76-.04-6.86-.04-13.72,0-20.58.02-3.7,2.2-5.9,5.97-6.01,2.95-.08,5.9-.02,8.85-.03Zm147.58,26.5c-.02,3.41-1.98,5.73-5.31,5.89-4.22.2-8.45.07-12.67.06-.28,0-.57-.21-.97-.36v-32.08c4.4,0,8.52-.05,12.64.01,4.19.06,6.3,2.23,6.32,6.39.02,6.7.03,13.39,0,20.09Z"/>
      <path class="cls-1" d="m119.93,119.38c2.35-2.27,4.65-4.61,6.88-7,2.69-2.88,2.9-6.34.69-9.64-.58-.86-1.25-1.66-1.88-2.48-2.6-3.38-1.18-6.78,3.06-7.36.87-.12,1.73-.28,2.6-.42,4.27-.7,6.53-3.18,6.63-7.45.08-3.35.08-6.71,0-10.06-.1-4.32-2.35-6.81-6.59-7.47-1.34-.21-2.71-.29-4.02-.61-.69-.17-1.54-.59-1.87-1.16-1.57-2.68-2.34-5.39.52-7.83.41-.35.7-.87,1.01-1.33,2.27-3.39,1.99-6.86-.83-9.8-1.5-1.55-3.06-3.03-4.6-4.54-6.24-6.13-8.31-6.27-15.26-.89-1.18.92-2.11,1.14-3.64.61-2.22-.76-3.25-1.99-3.23-4.29,0-.95-.2-1.91-.38-2.84-.75-3.95-3.28-6.11-7.33-6.19-2.79-.06-5.59-.02-8.38-.02-6.56,0-8.75,1.81-9.41,8.42-.27,2.71-1.17,4.28-3.87,5.14-1.65.52-2.83.57-4.09-.59-.76-.7-1.63-1.28-2.49-1.86-3.53-2.4-7.18-2.12-10.22.86-2.33,2.29-4.63,4.62-6.86,7.02-2.69,2.9-2.92,6.36-.69,9.63.85,1.25,1.88,2.38,2.71,3.65.35.54.63,1.33.51,1.93-.65,3.25-1.34,3.83-4.65,4.31-.87.13-1.74.26-2.6.4-3.86.65-6.19,3.06-6.35,6.94-.15,3.66-.14,7.35,0,11.01.15,3.78,2.4,6.22,6.1,6.93,1.1.21,2.2.47,3.31.49,2.02.04,2.93,1.03,3.79,2.86,1.04,2.22.89,3.85-.73,5.54-.6.63-1.08,1.38-1.57,2.11-2.29,3.37-1.98,6.89.86,9.78,1.51,1.54,3.08,3.01,4.6,4.54,6.19,6.23,8.22,6.39,15.2.94,1.26-.99,2.21-1.03,3.81-.62,2.99.77,2.91,2.95,3.2,5.11.67,5.04,2.49,7.47,6.39,8.08h0s4.21,2.11,14.21,0l-.31-.21c2.24-.98,4.12-2.85,4.68-5.12.42-1.7.51-3.47.86-5.19.13-.63.44-1.43.93-1.75,3.34-2.2,4.47-2.12,7.78.29.45.33.9.67,1.36.98,3.65,2.45,6.97,2.2,10.17-.88Zm-7.03-4.7c-1.81-1.43-3.64-2.9-5.62-4.06-.84-.49-2.23-.61-3.17-.29-2.85.98-5.64,2.16-8.37,3.46-.76.36-1.57,1.29-1.75,2.1-.54,2.41-.82,4.88-1.1,7.33-.16,1.39-.79,1.89-2.18,1.85-2.79-.08-5.59-.08-8.38,0-1.32.04-1.86-.5-2.02-1.76-.3-2.45-.55-4.93-1.11-7.33-.2-.86-1.08-1.84-1.91-2.24-2.43-1.17-4.95-2.2-7.52-3.03-.96-.31-2.36-.25-3.19.25-1.97,1.19-3.76,2.69-5.54,4.17-1.11.92-1.94,1.09-3.04-.07-1.91-2.03-4.05-3.86-5.92-5.93-.46-.51-.65-1.84-.31-2.39,1.39-2.24,3.11-4.27,4.55-6.48.38-.58.48-1.64.23-2.3-1.15-2.96-2.39-5.9-3.78-8.76-.37-.77-1.28-1.61-2.08-1.8-2.4-.55-4.87-.85-7.33-1.12-1.33-.14-1.77-.76-1.75-2.02.05-2.79.06-5.59,0-8.38-.03-1.37.43-2.03,1.86-2.18,2.3-.25,4.57-.71,6.86-1,1.42-.18,2.17-.75,2.64-2.23.81-2.57,2.12-4.98,2.99-7.54.29-.85.19-2.14-.28-2.89-1.32-2.08-3.02-3.92-4.36-5.99-.37-.57-.33-1.91.1-2.4,1.92-2.21,4.04-4.24,6.1-6.32.32-.33.74-.57,1.17-.89.54.3,1.04.53,1.48.85,1.95,1.39,3.81,2.93,5.86,4.15.77.46,2.08.52,2.95.21,2.84-1.01,5.64-2.18,8.36-3.5.82-.4,1.64-1.39,1.87-2.26.51-2,.76-4.08.91-6.15.15-2.02.81-3.03,3.08-2.83,2.38.21,4.79.15,7.18.01,1.78-.1,2.4.67,2.57,2.3.24,2.3.51,4.61,1.03,6.86.19.8,1.02,1.7,1.79,2.06,2.44,1.16,5.04,1.98,7.48,3.14,1.33.63,2.33.67,3.49-.28,1.85-1.52,3.76-2.96,5.72-4.34.49-.35,1.57-.64,1.85-.39,2.5,2.29,4.93,4.66,7.25,7.14.3.33.04,1.52-.33,2.08-1.32,2-2.73,3.94-4.22,5.81-.87,1.09-.9,1.91-.24,3.19,1.31,2.54,2.49,5.18,3.36,7.9.51,1.59,1.33,2.15,2.82,2.34,2.21.27,4.41.73,6.63.97,1.37.15,1.98.66,1.95,2.1-.07,2.87.07,5.75-.1,8.62-.04.64-.93,1.62-1.58,1.77-2.25.52-4.56.8-6.85,1.04-1.52.16-2.34.73-2.84,2.32-.81,2.57-2.14,4.98-3.01,7.53-.29.84-.15,2.13.33,2.88,1.27,2.01,2.78,3.88,4.28,5.74.86,1.07.86,1.9-.15,2.88-2,1.95-3.97,3.93-5.86,5.99-1,1.09-1.79.95-2.85.11Z"/>
      <path class="cls-1" d="m86.45,57.89c-12.19.04-22.05,9.97-22.01,22.16.04,12.18,9.96,22.05,22.15,22.04,12.2,0,22.1-9.88,22.13-22.06.03-12.29-9.92-22.18-22.27-22.14Zm.2,37.88c-8.67.04-15.82-7.14-15.79-15.84.03-8.64,7.03-15.66,15.67-15.7,8.71-.04,15.8,7.06,15.8,15.82,0,8.59-7.09,15.69-15.67,15.73Z"/>
    </g>
  </g>
</svg>