<?xml version="1.0" encoding="UTF-8"?>
<svg id="Capa_2" data-name="Capa 2" xmlns="http://www.w3.org/2000/svg" xmlns:xlink="http://www.w3.org/1999/xlink" viewBox="0 0 48.76 48.76">
  <defs>
    <style>
      .cls-1 {
        fill: #fff;
      }
    </style>
    <symbol id="Reloj" viewBox="0 0 64 64">
      <g>
        <path class="cls-1" d="m32,0C14.33,0,0,14.33,0,32s14.33,32,32,32,32-14.33,32-32S49.67,0,32,0Zm0,57c-13.79,0-25-11.21-25-25S18.21,7,32,7s25,11.21,25,25-11.21,25-25,25Z"/>
        <path class="cls-1" d="m47.46,31.24h-13.97V14.84c0-1.38-1.12-2.5-2.5-2.5s-2.5,1.12-2.5,2.5v21.05c0,1.38,1.12,2.5,2.5,2.5.32,0,.62-.07.9-.17.08,0,.15.02.23.02h15.35c1.93,0,3.5-1.57,3.5-3.5s-1.57-3.5-3.5-3.5Z"/>
      </g>
    </symbol>
  </defs>
  <g id="Capa_1-2" data-name="Capa 1">
    <use width="64" height="64" transform="scale(.76)" xlink:href="#Reloj"/>
  </g>
</svg>