<?xml version="1.0" encoding="utf-8"?>
<!-- Generator: Adobe Illustrator 27.6.1, SVG Export Plug-In . SVG Version: 6.00 Build 0)  -->
<svg version="1.1" id="Capa_2_00000117671573704483475740000005388975022808898739_"
	 xmlns="http://www.w3.org/2000/svg" xmlns:xlink="http://www.w3.org/1999/xlink" x="0px" y="0px" viewBox="0 0 445.9 147.5"
	 style="enable-background:new 0 0 445.9 147.5;" xml:space="preserve">
<style type="text/css">
	.st0{fill-rule:evenodd;clip-rule:evenodd;fill:#333333;}
	.st1{fill:#333333;}
</style>
<g id="Capa_1-2">
	<g>
		<g>
			<path class="st0" d="M76.3,98.6h28.1v4.4h8.2v-4.4h7.3V84.4h-7.3V16.2H31.9v44.2l-3.7,0.5l2,14.3l1.7-0.2v9.5h-7.3v14.2h7.3v4.4
				h8.6v-4.4h27.3l0.1,4.4h8.4V98.6L76.3,98.6z M40.5,23.3h63.9v61.2H40.5V23.3z M31.9,93.6v-3.9h80.7v3.9H31.9z"/>
			<path class="st0" d="M72.2,0C59.2,0,47.8,5.2,40.5,13h63.9C97.1,4.9,85.5,0,72.2,0z"/>
			<path class="st0" d="M54.4,53.6c-4.5,0-8.4,2.3-10.8,5.8h-1.4v2.6c-0.6,1.6-1,3.3-1,5.1s0.3,3.5,1,5.1v1.6h0.7
				c2.3,4.1,6.5,6.9,11.5,6.9c7.3,0,13.2-6.1,13.2-13.6S61.7,53.6,54.4,53.6L54.4,53.6z"/>
			<polygon class="st0" points="28.3,75.7 24.3,61.8 20.3,63 24.3,76.8 			"/>
			<polygon class="st0" points="22.6,77.4 14.9,65.2 11.4,67.3 19.1,79.6 			"/>
			<polygon class="st0" points="18,80.2 6.9,71 4.3,74.1 15.4,83.4 			"/>
			<polygon class="st0" points="14.1,89.2 0,92.4 0.9,96.5 15,93.2 			"/>
			
				<rect x="5.5" y="77.5" transform="matrix(0.2244 -0.9745 0.9745 0.2244 -76.6756 73.0357)" class="st1" width="4.1" height="14.4"/>
			<polygon class="st0" points="15.2,94.5 3.7,103.2 6.2,106.5 17.7,97.8 			"/>
			<polygon class="st0" points="10.3,110.8 13.7,113.1 21.8,101.1 18.4,98.8 			"/>
			<polygon class="st0" points="22.8,101.7 18.6,115.5 22.6,116.7 26.8,102.9 			"/>
			<polygon class="st0" points="26.2,117.3 30.3,117.8 32,103.5 27.9,103 			"/>
			<polygon class="st0" points="33.8,118 37.9,117.9 37.9,103.5 33.8,103.5 			"/>
			<polygon class="st0" points="44.9,103.5 40.8,103.5 40.8,118 44.9,117.9 			"/>
			<polygon class="st0" points="47.6,118 51.7,117.9 51.8,103.5 47.6,103.5 			"/>
			<polygon class="st0" points="58.7,103.5 54.5,103.5 54.5,118 58.7,117.9 			"/>
			<polygon class="st0" points="61.3,118 65.4,117.9 65.4,103.5 61.3,103.5 			"/>
			<polygon class="st0" points="72.4,103.5 68.3,103.5 68.3,118 72.4,117.9 			"/>
			<polygon class="st0" points="75.1,118 79.2,117.9 79.3,103.5 75.1,103.5 			"/>
			<polygon class="st0" points="86.2,117.9 86.2,103.5 82.1,103.5 82,118 			"/>
			<polygon class="st0" points="88.8,118 92.9,117.9 92.9,103.5 88.8,103.5 			"/>
			<polygon class="st0" points="99.9,103.5 95.8,103.5 95.8,118 99.9,117.9 			"/>
			<polygon class="st0" points="102.6,118 106.8,117.9 106.8,103.5 102.6,103.5 			"/>
			<polygon class="st0" points="109.5,118 113.7,117.9 113.7,103.5 109.6,103.5 			"/>
			<polygon class="st0" points="116.3,118 120.4,117.9 120.4,103.5 116.3,103.5 			"/>
			<polygon class="st0" points="123.3,118 127.4,117.9 127.4,103.5 123.3,103.5 			"/>
			<polygon class="st0" points="130.1,118 134.3,117.9 134.3,103.5 130.1,103.5 			"/>
			<polygon class="st0" points="137,118 141.2,117.9 141.2,103.5 137.1,103.5 			"/>
			<polygon class="st0" points="148.1,103.5 144,103.5 144,118 148.1,117.9 			"/>
			<polygon class="st0" points="155.1,103.5 151,103.5 151,118 155.1,117.9 			"/>
			<polygon class="st0" points="157.8,118 161.9,117.9 162,103.5 157.8,103.5 			"/>
			<polygon class="st0" points="168.9,117.9 168.9,103.5 164.8,103.5 164.7,118 			"/>
			<polygon class="st0" points="171.5,118 175.6,117.9 175.6,103.5 171.5,103.5 			"/>
			<polygon class="st0" points="182.6,103.5 178.5,103.5 178.5,118 182.6,117.9 			"/>
			<polygon class="st0" points="185.3,118 189.4,117.9 189.5,103.5 185.3,103.5 			"/>
			<polygon class="st0" points="196.4,103.5 192.2,103.5 192.2,118 196.4,117.9 			"/>
			<polygon class="st0" points="199,118 203.1,117.9 203.1,103.5 199,103.5 			"/>
			<polygon class="st0" points="206,118 210.1,117.9 210.1,103.5 206,103.5 			"/>
			<polygon class="st0" points="217,117.9 217,103.5 212.8,103.5 212.8,118 			"/>
			<polygon class="st0" points="219.7,118 223.9,117.9 223.9,103.5 219.8,103.5 			"/>
			<polygon class="st0" points="226.5,118 230.6,117.9 230.6,103.5 226.5,103.5 			"/>
			<polygon class="st0" points="233.5,118 237.6,117.9 237.6,103.5 233.5,103.5 			"/>
			<polygon class="st0" points="244.5,103.5 240.4,103.5 240.3,118 244.5,117.9 			"/>
			<polygon class="st0" points="247.2,118 251.4,117.9 251.4,103.5 247.3,103.5 			"/>
			<polygon class="st0" points="254.3,118 258.5,117.9 258.5,103.5 254.4,103.5 			"/>
			<polygon class="st0" points="261.3,118 265.5,117.9 265.5,103.5 261.4,103.5 			"/>
			<rect x="268.1" y="103.5" class="st1" width="131.4" height="14.2"/>
			<path class="st0" d="M430.7,72.9c0,30.6-18,30.6-18,30.6h-11.5v14.1l11.7,0c0,0,18.3-1.5,17.7,30h15.2l0.1-74.7L430.7,72.9
				L430.7,72.9z"/>
			<path class="st0" d="M12.7,134.8c-0.9-0.7-1.5-1.4-1.8-1.9s-0.5-1.1-0.5-1.6V131c0-0.5,0.1-0.9,0.4-1.2s0.6-0.4,1-0.4
				s0.8,0.1,1,0.4c0.2,0.3,0.4,0.7,0.4,1.2v0.7l2.6-0.3V131c0-1.3-0.4-2.3-1.1-3s-1.7-1.1-3-1.1s-2.3,0.3-3,1.1
				c-0.7,0.7-1.1,1.7-1.1,3v0.4c0,1.1,0.2,2,0.8,2.9c0.5,0.9,1.4,1.8,2.6,2.8c0.9,0.8,1.5,1.4,1.9,1.9s0.5,1.1,0.5,1.7v0.6
				c0,1.1-0.5,1.7-1.5,1.7s-1.5-0.6-1.5-1.7V140l-2.6,0.3v1.2c0,1.3,0.4,2.3,1.1,3s1.8,1.1,3.1,1.1s2.4-0.4,3.1-1.1
				c0.7-0.7,1.1-1.7,1.1-3v-0.9c0-1.1-0.3-2-0.8-2.9S14,135.8,12.7,134.8z"/>
			<polygon class="st0" points="23.2,145.2 30.9,145.2 30.9,142.7 26,142.7 26,137.3 30,137.3 30,134.8 26,134.8 26,129.7 
				30.9,129.7 30.9,127.2 23.2,127.2 			"/>
			<path class="st0" d="M47.2,133.1v-1.3c0-1.5-0.4-2.6-1.2-3.4s-1.9-1.2-3.4-1.2h-3.9v18h2.7v-7.6h1.3l2.2,7.6h2.9l-2.5-8.2
				C46.5,136.3,47.2,134.9,47.2,133.1L47.2,133.1z M44.4,132.9c0,0.8-0.2,1.3-0.5,1.7c-0.3,0.4-0.8,0.5-1.4,0.5h-1.1v-5.4h1.1
				c0.7,0,1.1,0.2,1.4,0.5c0.3,0.4,0.5,0.9,0.5,1.7V132.9L44.4,132.9z"/>
			<polygon class="st0" points="59,140.9 59,140.9 57,127.2 54.2,127.2 57.2,145.2 60.7,145.2 63.8,127.2 61,127.2 			"/>
			<rect x="71.2" y="127.2" class="st1" width="2.7" height="18"/>
			<path class="st0" d="M86.2,127c-1.3,0-2.3,0.4-3.1,1.1c-0.7,0.8-1.1,1.8-1.1,3.2v9.9c0,1.4,0.4,2.4,1.1,3.2
				c0.7,0.8,1.8,1.1,3.1,1.1s2.4-0.4,3.1-1.1c0.8-0.8,1.1-1.8,1.1-3.2V139l-2.6-0.1v2c0,1.4-0.5,2.1-1.5,2.1c-0.5,0-0.9-0.1-1.1-0.5
				c-0.3-0.3-0.4-0.8-0.4-1.4v-9.8c0-0.6,0.1-1.1,0.4-1.4c0.3-0.3,0.7-0.5,1.1-0.5c1,0,1.5,0.7,1.5,2.1v1.5l2.6-0.1v-1.6
				c0-1.4-0.4-2.4-1.1-3.2C88.6,127.3,87.6,127,86.2,127L86.2,127z"/>
			<rect x="98.2" y="127.2" class="st1" width="2.7" height="18"/>
			<path class="st0" d="M113.5,127c-1.4,0-2.4,0.4-3.2,1.2c-0.8,0.8-1.2,1.9-1.2,3.3v9.4c0,1.4,0.4,2.5,1.2,3.3
				c0.8,0.8,1.8,1.2,3.2,1.2s2.4-0.4,3.2-1.2c0.8-0.8,1.2-1.9,1.2-3.3v-9.4c0-1.4-0.4-2.5-1.2-3.3C115.9,127.4,114.8,127,113.5,127z
				 M115.1,140.9c0,0.7-0.1,1.2-0.4,1.5s-0.7,0.5-1.2,0.5s-1-0.2-1.2-0.5c-0.3-0.4-0.4-0.9-0.4-1.5v-9.4c0-0.7,0.1-1.2,0.4-1.5
				s0.7-0.5,1.2-0.5s1,0.2,1.2,0.5c0.3,0.4,0.4,0.9,0.4,1.5V140.9z"/>
			<rect x="136.3" y="127.2" class="st1" width="2.7" height="18"/>
			<polygon class="st0" points="153.7,137.9 153.6,137.9 150.4,127.2 147.4,127.2 147.4,145.2 149.9,145.2 149.9,133.3 150,133.3 
				153.6,145.2 156.2,145.2 156.2,127.2 153.7,127.2 			"/>
			<polygon class="st0" points="163.4,129.8 166.3,129.8 166.3,145.2 169.1,145.2 169.1,129.8 172,129.8 172,127.2 163.4,127.2 			
				"/>
			<polygon class="st0" points="179.2,145.2 186.8,145.2 186.8,142.7 181.9,142.7 181.9,137.3 185.9,137.3 185.9,134.8 181.9,134.8 
				181.9,129.7 186.8,129.7 186.8,127.2 179.2,127.2 			"/>
			<path class="st0" d="M198.6,127c-1.4,0-2.4,0.4-3.1,1.1s-1.1,1.8-1.1,3.2v9.9c0,1.4,0.4,2.4,1.1,3.2c0.7,0.8,1.8,1.1,3.1,1.1
				s2.4-0.4,3.2-1.1s1.1-1.8,1.1-3.2v-5.9h-4.2v2.5h1.5v3.1c0,0.7-0.1,1.2-0.4,1.6s-0.6,0.5-1.2,0.5c-1.1,0-1.6-0.6-1.6-1.8v-9.8
				c0-0.6,0.1-1.1,0.4-1.4c0.3-0.3,0.7-0.5,1.2-0.5c1.1,0,1.6,0.7,1.6,2.1v1.1l2.6-0.1v-1.2c0-1.4-0.4-2.4-1.1-3.2
				C201,127.3,199.9,127,198.6,127L198.6,127z"/>
			<path class="st0" d="M219.3,133.1v-1.3c0-1.5-0.4-2.6-1.2-3.4s-1.9-1.2-3.4-1.2h-3.9v18h2.7v-7.6h1.3l2.2,7.6h2.9l-2.5-8.2
				C218.7,136.3,219.3,134.9,219.3,133.1L219.3,133.1z M216.6,132.9c0,0.8-0.1,1.3-0.5,1.7c-0.3,0.4-0.8,0.5-1.4,0.5h-1.1v-5.4h1.1
				c0.6,0,1.1,0.2,1.4,0.5s0.5,0.9,0.5,1.7V132.9L216.6,132.9z"/>
			<path class="st0" d="M229.5,127.2l-3.1,18h2.7l0.6-4.1h3l0.6,4.1h2.8l-3.1-18L229.5,127.2L229.5,127.2z M230.1,138.7l1.1-7.6h0.1
				l1.1,7.6H230.1L230.1,138.7z"/>
			<polygon class="st0" points="246.2,127.2 243.5,127.2 243.5,145.2 250.7,145.2 250.7,142.6 246.2,142.6 			"/>
			<path class="st0" d="M272.2,127.2h-3.9v18h3.9c1.5,0,2.6-0.4,3.4-1.2s1.2-1.9,1.2-3.4v-8.9c0-1.5-0.4-2.6-1.2-3.4
				S273.6,127.2,272.2,127.2z M274,140.5c0,0.8-0.1,1.3-0.5,1.7s-0.8,0.5-1.4,0.5H271v-12.9h1.1c0.6,0,1.1,0.2,1.4,0.5
				s0.5,0.9,0.5,1.7V140.5L274,140.5z"/>
			<polygon class="st0" points="284.8,145.2 292.5,145.2 292.5,142.7 287.5,142.7 287.5,137.3 291.5,137.3 291.5,134.8 287.5,134.8 
				287.5,129.7 292.5,129.7 292.5,127.2 284.8,127.2 			"/>
			<polygon class="st0" points="313.3,127.2 310.6,127.2 310.6,145.2 317.8,145.2 317.8,142.6 313.3,142.6 			"/>
			<rect x="325" y="127.2" class="st1" width="2.7" height="18"/>
			<polygon class="st0" points="341.9,136.9 341.9,136.9 339.7,127.2 336.1,127.2 336.1,145.2 338.7,145.2 338.7,132.7 338.8,132.7 
				341,142.6 342.6,142.6 344.9,132.7 345,132.7 345,145.2 347.7,145.2 347.7,127.2 344,127.2 			"/>
			<path class="st0" d="M360,127.2h-3.9v18h2.7v-7.4h1.2c1.5,0,2.6-0.4,3.4-1.2s1.2-1.9,1.2-3.4v-1.4c0-1.5-0.4-2.6-1.2-3.4
				S361.5,127.2,360,127.2z M361.8,133c0,0.8-0.1,1.3-0.5,1.7s-0.8,0.5-1.4,0.5h-1.1v-5.5h1.1c0.6,0,1.1,0.2,1.4,0.5
				s0.5,0.9,0.5,1.7V133L361.8,133z"/>
			<rect x="372" y="127.2" class="st1" width="2.7" height="18"/>
			<polygon class="st0" points="383.1,145.2 390.7,145.2 390.7,142.7 385.8,142.7 385.8,137.3 389.8,137.3 389.8,134.8 385.8,134.8 
				385.8,129.7 390.7,129.7 390.7,127.2 383.1,127.2 			"/>
			<polygon class="st0" points="397.8,129.7 402.6,129.7 397.5,142.9 397.5,145.2 405.5,145.2 405.5,142.7 400.5,142.7 405.5,129.5 
				405.5,127.2 397.8,127.2 			"/>
			<path class="st0" d="M415.1,127.2l-3.1,18h2.7l0.6-4.1h3l0.6,4.1h2.8l-3.1-18L415.1,127.2L415.1,127.2z M415.6,138.7l1.1-7.6h0.1
				l1.1,7.6H415.6L415.6,138.7z"/>
			<path class="st0" d="M140.5,86.4V40.8l-0.2-2.1c-1.2-3-3.3-4.5-6.4-4.5c-0.9,0-1.8,0.2-2.9,0.5c-2.6,1-3.8,3-3.8,5.9v46.2
				c0.5,2,2.7,2.9,6.6,2.9C138.2,89.8,140.5,88.7,140.5,86.4L140.5,86.4z M130.9,41.7h-0.3c-0.6,0-1.1-0.4-1.3-1.2v-0.2
				c0.5-2.4,1.6-3.6,3.2-3.6c1,0.3,1.4,0.8,1.4,1.6v0.2C133.5,40.6,132.5,41.7,130.9,41.7L130.9,41.7z"/>
			<path class="st0" d="M164.9,41.9V42c-0.5,0-1,0.5-1.4,1.5l0.3,0.3h8.8c1.2,0,2.4,0.6,3.5,1.8l-2.4-0.3h-0.5l0.6,2.6v38.6
				c0,1.9,1.8,3,5.4,3.3h1.6c4.1-0.3,6.2-1.4,6.2-3.1V45.2c0-3.5-0.5-6-1.6-7.4c-1.6-2.3-5.6-3.5-12.1-3.5l-17.6,0.2
				c-1.9,0-3.6,0.4-5.1,1.2c-1.7,1-2.6,3.7-2.6,8v43.3c0.5,2,2.4,2.9,5.9,2.9h1.4l1.8-0.2c2.8-0.4,4.1-1.4,4.1-3.1V46.2
				c0-1.9,1.1-3.4,3.4-4.3L164.9,41.9L164.9,41.9z M155.3,38.8c0,1.6-1.1,2.7-3.2,3.5c-0.9,0-1.4-0.6-1.4-1.9c0-1.3,0.9-2.3,2.7-3.1
				h0.6c0.9,0,1.3,0.5,1.3,1.4C155.3,38.6,155.3,38.8,155.3,38.8z"/>
			<path class="st0" d="M232,81.9c1.3-1.3,1.9-6.5,1.9-15.4V54c0-3.8-0.3-6.6-1-8.5c-3.1-6.8-8-10.2-14.7-10.2h-12.9
				c-4.7,0-7.5,0.6-8.5,1.7c-1.4,1-2.1,3.9-2.1,8.6v32.7c0,2.6,0.2,4.7,0.6,6.2c1.2,3.5,4.7,5.2,10.4,5.2h12.3
				C224.6,89.8,229.3,87.2,232,81.9L232,81.9z M202.8,40.2c0,1.6-0.9,2.7-2.7,3.3h-1c-0.6-0.5-1-1-1-1.4c0-1.7,1-2.9,3-3.6
				c1.1,0.1,1.6,0.6,1.6,1.6L202.8,40.2L202.8,40.2z M211.4,81.5H211c-2-0.8-3-2.3-3-4.5V47.4c0-2.1,1-3.7,3-4.7h0.3v0.2
				c-0.9,0.5-1.3,1-1.3,1.5l0.3,0.3h7.5c1.6,0,3,0.6,4.3,1.7v0.2h-0.2c-0.9-0.3-1.7-0.5-2.4-0.5h-0.2v0.2c1.2,1.4,1.8,3.4,1.8,6.1
				v20.1c-0.2,3.1-0.6,4.7-1.3,4.7v0.2l0.2,0.2l2.4-0.3h0.2c-1.1,1.2-2.4,1.7-3.8,1.7h-8.8l-0.2,0.2c0,1,0.5,1.8,1.4,2.2L211.4,81.5
				L211.4,81.5z"/>
			<path class="st0" d="M254.7,89.8h20.5c3.7-0.4,5.6-2.1,5.6-5.2v-1.6c-1-2.8-2.7-4.2-5.3-4.2h-16.6c-0.8,0-1.3-0.1-1.8-0.3h-0.2
				c0.2,1.8,0.7,2.8,1.4,2.8v0.2h-0.2c-2.1-0.8-3.2-2.1-3.2-4v-8.1c0-1.9,1.1-3.3,3.2-4.2h0.2v0.2c-0.5,0-1,0.7-1.4,2.1l0.2,0.2
				l1.3-0.3h13.3c3.3-0.4,5-2.1,5-5c0-3-1.6-4.8-5-5.2h-13.3c-0.6,0-1.2-0.3-1.9-0.9h-0.2v1c0,1.2,0.5,1.9,1.4,2.2v0.2h-0.2
				c-1.7,0-2.7-1.2-3.2-3.5v-8.7c0-2.2,1-3.9,3-4.8h0.3v0.2c-0.7,0-1.2,0.9-1.4,2.6v0.2h0.2c0.6-0.6,1.4-0.9,2.4-0.9h15.7
				c2.2,0,3.6-1.5,4.2-4.7c0-2.9-1.6-4.5-4.8-4.8h-20c-3.9,0-6.8,0.6-8.9,1.9c-2.1,1.4-3.2,4.9-3.2,10.5v29.6c0,2.9,0.4,5.2,1.1,6.8
				C244.9,87.9,248.9,89.8,254.7,89.8L254.7,89.8z M248.3,38.4c0.8,0,1.3,0.5,1.4,1.6v0.2c0,1.7-1,2.8-3,3.3h-0.2
				c-0.9,0-1.3-0.5-1.4-1.6C245.1,40.3,246.2,39.1,248.3,38.4z"/>
			<path class="st0" d="M300.4,89.8h20.3c1.2,0,2.1-0.1,2.6-0.3c2.3-0.9,3.5-2.6,3.5-5v-0.2l-0.3-2.1c-1-2.2-2.8-3.3-5.3-3.3h-16.8
				l-1.3-0.3v0.2l-0.2,0.2c0.3,1.6,0.8,2.4,1.4,2.4v0.2h-0.2c-2.1-0.8-3.2-2.1-3.2-4V46.2c0-1.9,1.1-3.3,3.2-4.2h0.2
				c-1,0.8-1.4,1.7-1.4,2.8V45l0.2,0.2c0.4-0.2,1-0.3,1.8-0.3h15.7c2.7-0.6,4-2,4-4.1v-0.7l-0.2-1.4c-0.7-2.2-2.2-3.3-4.5-3.3h-20
				c-3.8,0-6.5,0.5-8.3,1.6c-2.6,1.3-3.8,4.5-3.8,9.5v32c0,1.7,0.2,3.2,0.6,4.5C290.2,87.5,294.2,89.8,300.4,89.8L300.4,89.8z
				 M294.4,38.4c0.8,0,1.3,0.5,1.4,1.6v0.3c-0.6,2.1-1.6,3.1-3,3.1h-0.6c-0.4-0.2-0.8-0.6-1-1.2C291.2,40.3,292.3,39,294.4,38.4z"/>
			<path class="st0" d="M339.4,89.8h0.2c4.4-0.3,6.5-1.2,6.5-2.9V69.6c0-2.3,1.1-3.8,3.2-4.7h0.2v0.2c-0.9,0.5-1.3,1-1.3,1.6
				l0.3,0.3h7.8c1.9,0,3.4,0.6,4.3,1.7l-2.1-0.3h-0.2l-0.2,0.2c0.3,1.1,0.5,2.1,0.5,2.9v15.4c0,1.7,2.1,2.7,6.2,2.9
				c4.7,0,7-1.3,7-3.8V52.1c0-6.2-1.2-10.5-3.5-13c-3-2.8-6.1-4.2-9.3-4.2h-12.3c-5.3,0-9,1.2-11.2,3.6c-1.9,1.5-2.9,5.4-2.9,11.6
				v36.2C332.9,88.6,335.1,89.8,339.4,89.8L339.4,89.8z M346.1,47.4c0-2.2,1-3.8,3-4.8h0.3v0.2c-0.9,0.5-1.3,1-1.3,1.5h0.2l0.2,0.2
				h7.2c2.3,0,4,0.6,5,1.7l-2.4-0.3h-0.2l-0.2,0.2c0.5,1.4,0.8,2.3,0.8,2.8v3c0,1.3-0.2,2.5-0.5,3.5v0.2c1,0,1.8-0.2,2.6-0.5h0.2V55
				c-1.5,1.2-3,1.7-4.6,1.7h-8l-0.3,0.3c0,1.2,0.5,1.9,1.4,2.2v0.2h-0.2c-1.7,0-2.8-1.2-3.2-3.5V47.4L346.1,47.4z M339.2,38.1
				c0.7,0,1.2,0.3,1.6,1v1c0,1.5-1,2.5-3,2.9h-0.2c-1-0.2-1.4-0.6-1.4-1.4C336.2,40.1,337.2,38.9,339.2,38.1L339.2,38.1z"/>
			<path class="st0" d="M385.1,89.8h1.9c3.9,0,5.9-1.2,5.9-3.6l-0.2-16.5V69c0-2.4,1.1-4,3.4-4.8h0.2v0.2c-1,0.6-1.4,1.2-1.4,1.7
				l0.3,0.3h8.1c1.8,0,3.2,0.6,4.1,1.8l-2.1-0.3l-0.5,0.2l0.5,1.9v16.8c0,1.8,2,2.9,5.9,3.1h1.4l1.8-0.2c2.8-0.4,4.1-1.4,4.1-3.1
				V68.7c0-2-0.6-3.7-1.8-5c-1.4-1.4-2.6-2.2-3.7-2.4v-0.2c3.2-1.9,4.8-4.3,4.8-7.3v-6.9c0-2.9-0.5-5.4-1.4-7.4
				c-1.9-3.5-6.1-5.2-12.8-5.2h-6.9l-1.1,0.2l-0.2-0.2l-0.6,0.2h-7.3c-1.6,0-3.3,0.3-5,0.9c-2,1-3,3.5-3,7.4v44.1
				C379.7,88.5,381.5,89.5,385.1,89.8L385.1,89.8z M392.3,45.8c0-1.7,1-3.1,3-4h0.2V42c-0.4,0-0.9,0.6-1.3,1.7h0.2l0.2,0.2h8.9
				c2.7,0.5,4,1.1,4,1.8l-2.9-0.3h-0.6c0.5,1.2,0.8,2.2,0.8,3.1v3.6c0,0.9-0.2,1.7-0.5,2.4v0.2l0.2,0.2l3-0.5
				c-0.6,1.3-3.1,1.9-7.5,1.9h-2.9l-2.7-0.2v0.2l-0.2,0.2v0.3c0,0.9,0.5,1.6,1.4,1.9v0.2h-0.2c-2.1-0.5-3.2-1.7-3.2-3.3L392.3,45.8
				L392.3,45.8z M383,40.7c0-1.6,1.1-2.6,3.2-3.1c0.8,0,1.3,0.5,1.4,1.6c0,1.7-1.1,2.9-3.2,3.5c-0.8,0-1.3-0.5-1.4-1.6V40.7z"/>
		</g>
	</g>
</g>
</svg>
