<?xml version="1.0" encoding="UTF-8"?>
<svg id="Capa_2" data-name="Capa 2" xmlns="http://www.w3.org/2000/svg" viewBox="0 0 445.94 147.53">
  <defs>
    <style>
      .cls-1, .cls-2 {
        fill: #fff;
        stroke-width: 0px;
      }

      .cls-2 {
        fill-rule: evenodd;
      }
    </style>
  </defs>
  <g id="Capa_1-2" data-name="Capa 1">
    <g>
      <path class="cls-2" d="m76.29,98.6h28.11v4.43h8.18v-4.43h7.35v-14.18h-7.35V16.17H31.91v44.22l-3.73.52,2.01,14.27,1.71-.24v9.47h-7.27v14.18h7.27v4.43h8.56v-4.43h27.34l.06,4.43h8.43v-4.43ZM40.47,23.26h63.93v61.16h-63.93V23.26Zm-8.56,70.33v-3.9h80.68v3.9H31.91Z"/>
      <path class="cls-2" d="m72.25,0c-13.06,0-24.41,5.16-31.78,12.97h63.93C97.05,4.95,85.51,0,72.25,0Z"/>
      <path class="cls-2" d="m54.39,53.63c-4.48,0-8.44,2.31-10.82,5.83h-1.39v2.63c-.62,1.58-.97,3.3-.97,5.1s.35,3.53.97,5.1v1.57h.74c2.26,4.11,6.55,6.89,11.46,6.89,7.28,0,13.18-6.07,13.18-13.57s-5.9-13.57-13.18-13.57Z"/>
      <polygon class="cls-2" points="28.26 75.7 24.28 61.85 20.31 62.98 24.29 76.84 28.26 75.7"/>
      <polygon class="cls-2" points="22.57 77.38 14.92 65.15 11.42 67.34 19.07 79.56 22.57 77.38"/>
      <polygon class="cls-2" points="18.01 80.24 6.95 70.97 4.29 74.13 15.36 83.4 18.01 80.24"/>
      <polygon class="cls-2" points="14.08 89.2 0 92.45 .93 96.46 15.01 93.22 14.08 89.2"/>
      <rect class="cls-1" x="5.48" y="77.46" width="4.12" height="14.45" transform="translate(-76.67 73.03) rotate(-77.03)"/>
      <polygon class="cls-2" points="15.25 94.5 3.71 103.17 6.19 106.46 17.73 97.79 15.25 94.5"/>
      <polygon class="cls-2" points="10.29 110.75 13.72 113.05 21.8 101.1 18.37 98.8 10.29 110.75"/>
      <polygon class="cls-2" points="22.84 101.69 18.61 115.48 22.56 116.68 26.79 102.89 22.84 101.69"/>
      <polygon class="cls-2" points="26.16 117.35 30.26 117.85 32.03 103.53 27.93 103.03 26.16 117.35"/>
      <polygon class="cls-2" points="33.79 117.96 37.92 117.95 37.93 103.53 33.8 103.53 33.79 117.96"/>
      <polygon class="cls-2" points="44.93 103.53 40.8 103.53 40.79 117.96 44.92 117.95 44.93 103.53"/>
      <polygon class="cls-2" points="47.62 117.96 51.74 117.95 51.76 103.53 47.63 103.53 47.62 117.96"/>
      <polygon class="cls-2" points="58.67 103.53 54.54 103.53 54.53 117.96 58.66 117.95 58.67 103.53"/>
      <polygon class="cls-2" points="61.29 117.96 65.42 117.95 65.44 103.53 61.31 103.53 61.29 117.96"/>
      <polygon class="cls-2" points="72.43 103.53 68.31 103.53 68.29 117.96 72.42 117.95 72.43 103.53"/>
      <polygon class="cls-2" points="75.12 117.96 79.25 117.95 79.26 103.53 75.13 103.53 75.12 117.96"/>
      <polygon class="cls-2" points="86.16 117.95 86.18 103.53 82.05 103.53 82.03 117.96 86.16 117.95"/>
      <polygon class="cls-2" points="88.8 117.96 92.93 117.95 92.94 103.53 88.81 103.53 88.8 117.96"/>
      <polygon class="cls-2" points="99.94 103.53 95.81 103.53 95.8 117.96 99.93 117.95 99.94 103.53"/>
      <polygon class="cls-2" points="102.62 117.96 106.75 117.95 106.77 103.53 102.64 103.53 102.62 117.96"/>
      <polygon class="cls-2" points="109.54 117.96 113.67 117.95 113.68 103.53 109.55 103.53 109.54 117.96"/>
      <polygon class="cls-2" points="116.3 117.96 120.43 117.95 120.44 103.53 116.32 103.53 116.3 117.96"/>
      <polygon class="cls-2" points="123.3 117.96 127.43 117.95 127.44 103.53 123.32 103.53 123.3 117.96"/>
      <polygon class="cls-2" points="130.13 117.96 134.26 117.95 134.27 103.53 130.14 103.53 130.13 117.96"/>
      <polygon class="cls-2" points="137.04 117.96 141.17 117.95 141.18 103.53 137.06 103.53 137.04 117.96"/>
      <polygon class="cls-2" points="148.14 103.53 144.01 103.53 144 117.96 148.12 117.95 148.14 103.53"/>
      <polygon class="cls-2" points="155.14 103.53 151.01 103.53 151 117.96 155.12 117.95 155.14 103.53"/>
      <polygon class="cls-2" points="157.82 117.96 161.95 117.95 161.96 103.53 157.84 103.53 157.82 117.96"/>
      <polygon class="cls-2" points="168.86 117.95 168.88 103.53 164.75 103.53 164.74 117.96 168.86 117.95"/>
      <polygon class="cls-2" points="171.5 117.96 175.63 117.95 175.64 103.53 171.51 103.53 171.5 117.96"/>
      <polygon class="cls-2" points="182.64 103.53 178.51 103.53 178.5 117.96 182.63 117.95 182.64 103.53"/>
      <polygon class="cls-2" points="185.33 117.96 189.45 117.95 189.47 103.53 185.34 103.53 185.33 117.96"/>
      <polygon class="cls-2" points="196.38 103.53 192.25 103.53 192.24 117.96 196.37 117.95 196.38 103.53"/>
      <polygon class="cls-2" points="199 117.96 203.13 117.95 203.15 103.53 199.02 103.53 199 117.96"/>
      <polygon class="cls-2" points="206 117.96 210.13 117.95 210.15 103.53 206.02 103.53 206 117.96"/>
      <polygon class="cls-2" points="216.96 117.95 216.97 103.53 212.84 103.53 212.83 117.96 216.96 117.95"/>
      <polygon class="cls-2" points="219.74 117.96 223.87 117.95 223.89 103.53 219.76 103.53 219.74 117.96"/>
      <polygon class="cls-2" points="226.51 117.96 230.64 117.95 230.65 103.53 226.52 103.53 226.51 117.96"/>
      <polygon class="cls-2" points="233.51 117.96 237.64 117.95 237.65 103.53 233.52 103.53 233.51 117.96"/>
      <polygon class="cls-2" points="244.48 103.53 240.35 103.53 240.33 117.96 244.46 117.95 244.48 103.53"/>
      <polygon class="cls-2" points="247.25 117.96 251.38 117.95 251.39 103.53 247.26 103.53 247.25 117.96"/>
      <polygon class="cls-2" points="254.34 117.96 258.46 117.95 258.48 103.53 254.35 103.53 254.34 117.96"/>
      <polygon class="cls-2" points="261.34 117.96 265.46 117.95 265.48 103.53 261.35 103.53 261.34 117.96"/>
      <rect class="cls-1" x="268.14" y="103.49" width="131.4" height="14.16"/>
      <path class="cls-2" d="m430.7,72.88c0,30.61-17.98,30.61-17.98,30.61h-11.5v14.08s11.69-.04,11.69-.04c0,0,18.31-1.5,17.7,29.99h15.24l.09-74.65h-15.24Z"/>
      <path class="cls-2" d="m12.73,134.77c-.87-.74-1.47-1.37-1.8-1.89-.33-.52-.49-1.06-.49-1.61v-.23c0-.51.12-.9.36-1.17.24-.27.58-.4,1.03-.4s.79.13,1.03.4c.24.27.36.66.36,1.17v.67l2.62-.26v-.46c0-1.29-.35-2.28-1.05-2.98s-1.7-1.05-3.01-1.05-2.3.35-3.01,1.05-1.05,1.7-1.05,2.98v.39c0,1.06.25,2.02.75,2.87.5.85,1.36,1.79,2.6,2.84.89.75,1.51,1.39,1.85,1.91.34.52.51,1.08.51,1.66v.59c0,1.13-.51,1.7-1.54,1.7s-1.54-.57-1.54-1.7v-1.29l-2.62.26v1.21c0,1.29.36,2.28,1.09,2.98s1.77,1.05,3.12,1.05,2.39-.35,3.12-1.05c.73-.7,1.09-1.7,1.09-2.98v-.9c0-1.06-.26-2.02-.77-2.88-.51-.86-1.4-1.82-2.65-2.88Z"/>
      <polygon class="cls-2" points="23.25 145.21 30.91 145.21 30.91 142.69 25.98 142.69 25.98 137.34 29.96 137.34 29.96 134.82 25.98 134.82 25.98 129.73 30.91 129.73 30.91 127.22 23.25 127.22 23.25 145.21"/>
      <path class="cls-2" d="m47.15,133.05v-1.29c0-1.47-.39-2.6-1.16-3.38s-1.89-1.17-3.37-1.17h-3.93v17.99h2.72v-7.61h1.26l2.16,7.61h2.88l-2.49-8.2c1.29-.74,1.93-2.06,1.93-3.96Zm-2.72-.18c0,.75-.15,1.31-.46,1.67-.31.36-.79.54-1.44.54h-1.11v-5.35h1.11c.65,0,1.13.18,1.44.54.31.36.46.92.46,1.67v.93Z"/>
      <polygon class="cls-2" points="59.04 140.94 58.99 140.94 56.96 127.22 54.18 127.22 57.22 145.21 60.74 145.21 63.77 127.22 61.05 127.22 59.04 140.94"/>
      <rect class="cls-1" x="71.2" y="127.22" width="2.72" height="17.99"/>
      <path class="cls-2" d="m86.22,126.96c-1.32,0-2.35.38-3.08,1.13-.74.75-1.11,1.82-1.11,3.19v9.87c0,1.37.37,2.43,1.11,3.19.74.75,1.76,1.13,3.08,1.13s2.38-.38,3.12-1.14c.75-.76,1.12-1.82,1.12-3.17v-2.16l-2.62-.13v2c0,1.39-.51,2.08-1.54,2.08-.5,0-.88-.15-1.14-.46-.27-.31-.4-.76-.4-1.36v-9.82c0-.6.13-1.05.4-1.36.27-.31.65-.46,1.14-.46,1.03,0,1.54.69,1.54,2.08v1.46l2.62-.13v-1.62c0-1.35-.37-2.41-1.12-3.17-.75-.76-1.79-1.14-3.12-1.14Z"/>
      <rect class="cls-1" x="98.24" y="127.22" width="2.72" height="17.99"/>
      <path class="cls-2" d="m113.46,126.96c-1.37,0-2.45.41-3.23,1.22-.78.81-1.17,1.92-1.17,3.33v9.41c0,1.41.39,2.51,1.17,3.33.78.81,1.85,1.22,3.23,1.22s2.45-.41,3.23-1.22c.78-.81,1.17-1.92,1.17-3.33v-9.41c0-1.41-.39-2.51-1.17-3.33-.78-.81-1.85-1.22-3.23-1.22Zm1.67,13.93c0,.67-.14,1.18-.42,1.53-.28.35-.7.53-1.25.53s-.96-.18-1.25-.53c-.28-.35-.42-.86-.42-1.53v-9.36c0-.67.14-1.18.42-1.53.28-.35.7-.53,1.25-.53s.96.18,1.25.53c.28.35.42.86.42,1.53v9.36Z"/>
      <rect class="cls-1" x="136.26" y="127.22" width="2.72" height="17.99"/>
      <polygon class="cls-2" points="153.67 137.93 153.62 137.93 150.4 127.22 147.37 127.22 147.37 145.21 149.94 145.21 149.94 133.28 149.99 133.28 153.56 145.21 156.24 145.21 156.24 127.22 153.67 127.22 153.67 137.93"/>
      <polygon class="cls-2" points="163.44 129.79 166.34 129.79 166.34 145.21 169.06 145.21 169.06 129.79 171.97 129.79 171.97 127.22 163.44 127.22 163.44 129.79"/>
      <polygon class="cls-2" points="179.16 145.21 186.82 145.21 186.82 142.69 181.88 142.69 181.88 137.34 185.87 137.34 185.87 134.82 181.88 134.82 181.88 129.73 186.82 129.73 186.82 127.22 179.16 127.22 179.16 145.21"/>
      <path class="cls-2" d="m198.56,126.96c-1.35,0-2.4.38-3.14,1.13-.74.75-1.1,1.82-1.1,3.19v9.87c0,1.37.37,2.43,1.1,3.19.74.75,1.78,1.13,3.14,1.13s2.41-.38,3.16-1.13c.75-.75,1.13-1.82,1.13-3.19v-5.89h-4.21v2.52h1.54v3.08c0,.72-.13,1.25-.39,1.58s-.65.5-1.18.5c-1.05,0-1.57-.61-1.57-1.82v-9.82c0-.6.13-1.05.4-1.36.27-.31.66-.46,1.2-.46,1.06,0,1.59.69,1.59,2.08v1.08l2.62-.13v-1.23c0-1.37-.38-2.43-1.13-3.19-.75-.75-1.81-1.13-3.16-1.13Z"/>
      <path class="cls-2" d="m219.34,133.05v-1.29c0-1.47-.39-2.6-1.16-3.38s-1.89-1.17-3.37-1.17h-3.93v17.99h2.72v-7.61h1.26l2.16,7.61h2.88l-2.49-8.2c1.29-.74,1.93-2.06,1.93-3.96Zm-2.72-.18c0,.75-.15,1.31-.46,1.67-.31.36-.79.54-1.44.54h-1.1v-5.35h1.1c.65,0,1.13.18,1.44.54.31.36.46.92.46,1.67v.93Z"/>
      <path class="cls-2" d="m229.49,127.22l-3.11,17.99h2.72l.59-4.09h3.01l.59,4.09h2.78l-3.11-17.99h-3.47Zm.57,11.44l1.1-7.58h.08l1.1,7.58h-2.29Z"/>
      <polygon class="cls-2" points="246.18 127.22 243.46 127.22 243.46 145.21 250.73 145.21 250.73 142.64 246.18 142.64 246.18 127.22"/>
      <path class="cls-2" d="m272.17,127.22h-3.91v17.99h3.91c1.47,0,2.6-.39,3.37-1.17.77-.78,1.16-1.91,1.16-3.38v-8.89c0-1.47-.39-2.6-1.16-3.38s-1.89-1.17-3.37-1.17Zm1.8,13.26c0,.75-.15,1.31-.46,1.67-.31.36-.79.54-1.44.54h-1.08v-12.95h1.08c.65,0,1.13.18,1.44.54.31.36.46.92.46,1.67v8.53Z"/>
      <polygon class="cls-2" points="284.79 145.21 292.45 145.21 292.45 142.69 287.51 142.69 287.51 137.34 291.5 137.34 291.5 134.82 287.51 134.82 287.51 129.73 292.45 129.73 292.45 127.22 284.79 127.22 284.79 145.21"/>
      <polygon class="cls-2" points="313.28 127.22 310.56 127.22 310.56 145.21 317.83 145.21 317.83 142.64 313.28 142.64 313.28 127.22"/>
      <rect class="cls-1" x="325.04" y="127.22" width="2.72" height="17.99"/>
      <polygon class="cls-2" points="341.91 136.88 341.85 136.88 339.72 127.22 336.15 127.22 336.15 145.21 338.72 145.21 338.72 132.72 338.77 132.72 341.03 142.64 342.65 142.64 344.91 132.72 344.96 132.72 344.96 145.21 347.69 145.21 347.69 127.22 344.01 127.22 341.91 136.88"/>
      <path class="cls-2" d="m359.98,127.22h-3.93v17.99h2.72v-7.45h1.21c1.47,0,2.6-.39,3.37-1.17.77-.78,1.16-1.91,1.16-3.38v-1.44c0-1.47-.39-2.6-1.16-3.38s-1.89-1.17-3.37-1.17Zm1.8,5.81c0,.75-.15,1.31-.46,1.67-.31.36-.79.54-1.44.54h-1.1v-5.5h1.1c.65,0,1.13.18,1.44.54.31.36.46.92.46,1.67v1.08Z"/>
      <rect class="cls-1" x="371.97" y="127.22" width="2.72" height="17.99"/>
      <polygon class="cls-2" points="383.08 145.21 390.74 145.21 390.74 142.69 385.8 142.69 385.8 137.34 389.79 137.34 389.79 134.82 385.8 134.82 385.8 129.73 390.74 129.73 390.74 127.22 383.08 127.22 383.08 145.21"/>
      <polygon class="cls-2" points="397.8 129.73 402.56 129.73 397.55 142.95 397.55 145.21 405.51 145.21 405.51 142.69 400.5 142.69 405.51 129.48 405.51 127.22 397.8 127.22 397.8 129.73"/>
      <path class="cls-2" d="m415.08,127.22l-3.11,17.99h2.72l.59-4.09h3.01l.59,4.09h2.78l-3.11-17.99h-3.47Zm.57,11.44l1.11-7.58h.08l1.11,7.58h-2.29Z"/>
      <path class="cls-2" d="m140.47,86.36v-45.52l-.16-2.08c-1.17-3-3.3-4.5-6.39-4.5-.88,0-1.84.18-2.87.53-2.55,1.01-3.83,2.97-3.83,5.88v46.2c.51,1.96,2.69,2.94,6.55,2.94,4.47,0,6.71-1.15,6.71-3.46Zm-9.59-44.65h-.32c-.64,0-1.07-.4-1.28-1.21v-.17c.53-2.42,1.6-3.63,3.2-3.63.96.29,1.44.81,1.44,1.56v.17c-.43,2.19-1.44,3.29-3.04,3.29Z"/>
      <path class="cls-2" d="m164.88,41.86v.17c-.48,0-.96.52-1.44,1.55l.32.34h8.78c1.22,0,2.39.59,3.51,1.77l-2.4-.35h-.48l.64,2.6v38.59c0,1.93,1.81,3.03,5.43,3.29h1.6c4.15-.35,6.23-1.38,6.23-3.11v-41.53c0-3.49-.53-5.97-1.6-7.44-1.6-2.31-5.65-3.46-12.15-3.46l-17.55.17c-1.91,0-3.62.4-5.1,1.21-1.7,1.04-2.55,3.69-2.55,7.96v43.26c.48,1.96,2.45,2.94,5.91,2.94h1.44l1.76-.18c2.77-.4,4.15-1.44,4.15-3.12v-40.34c0-1.93,1.12-3.38,3.35-4.33h.16Zm-9.58-3.08c0,1.59-1.07,2.74-3.2,3.46-.88,0-1.36-.63-1.44-1.9,0-1.3.91-2.34,2.72-3.11h.64c.85,0,1.28.46,1.28,1.38v.17Z"/>
      <path class="cls-2" d="m231.97,81.87c1.28-1.35,1.92-6.49,1.92-15.4v-12.45c0-3.81-.32-6.63-.96-8.48-3.14-6.8-8.04-10.21-14.69-10.21h-12.93c-4.66,0-7.48.58-8.46,1.73-1.38,1.01-2.08,3.89-2.08,8.65v32.69c0,2.6.21,4.67.64,6.23,1.2,3.46,4.66,5.19,10.38,5.19h12.29c6.57,0,11.2-2.65,13.89-7.96Zm-29.22-41.71c0,1.56-.91,2.65-2.72,3.29h-.96c-.64-.49-.96-.95-.96-1.38,0-1.67,1.01-2.88,3.04-3.63,1.07.12,1.6.63,1.6,1.56v.17Zm8.62,41.36h-.32c-2.02-.78-3.03-2.28-3.03-4.5v-29.6c0-2.13,1.01-3.69,3.03-4.67h.32v.17c-.85.49-1.28,1.01-1.28,1.55l.32.34h7.51c1.55,0,2.98.58,4.32,1.73v.17h-.16c-.94-.35-1.74-.52-2.41-.52h-.16v.17c1.18,1.36,1.77,3.38,1.77,6.06v20.09c-.19,3.12-.62,4.68-1.29,4.68v.17l.16.17,2.4-.35h.16c-1.09,1.15-2.37,1.73-3.83,1.73h-8.79l-.16.17c0,1.04.48,1.79,1.44,2.25v.17Z"/>
      <path class="cls-2" d="m254.68,89.82h20.46c3.73-.37,5.59-2.1,5.59-5.19v-1.56c-.99-2.77-2.74-4.15-5.27-4.15h-16.62c-.75,0-1.33-.12-1.76-.35h-.16c.19,1.85.67,2.78,1.44,2.78v.17h-.16c-2.13-.81-3.2-2.13-3.2-3.98v-8.14c0-1.88,1.07-3.26,3.2-4.15h.16v.17c-.53,0-1.01.69-1.44,2.07l.16.17,1.28-.35h13.27c3.3-.43,4.95-2.1,4.95-5.01,0-3.05-1.65-4.78-4.95-5.18h-13.27c-.61,0-1.25-.29-1.92-.87h-.16v1.04c0,1.18.48,1.93,1.44,2.24v.17h-.16c-1.68,0-2.74-1.15-3.2-3.46v-8.66c0-2.25,1.01-3.87,3.04-4.85h.32v.17c-.69,0-1.17.86-1.44,2.59v.17h.16c.61-.58,1.41-.87,2.4-.87h15.66c2.24,0,3.62-1.55,4.16-4.65,0-2.87-1.6-4.48-4.79-4.83h-19.98c-3.86,0-6.84.63-8.95,1.9-2.13,1.41-3.19,4.93-3.19,10.55v29.58c0,2.91.37,5.16,1.12,6.75,2.05,3.81,5.99,5.71,11.82,5.71Zm-6.4-51.39c.83,0,1.3.52,1.44,1.56v.17c0,1.73-1.01,2.83-3.04,3.29h-.16c-.85,0-1.33-.52-1.44-1.56,0-1.62,1.07-2.77,3.2-3.46Z"/>
      <path class="cls-2" d="m300.44,89.82h20.3c1.25,0,2.1-.12,2.56-.35,2.34-.95,3.52-2.62,3.52-5.02v-.17l-.32-2.08c-1.01-2.19-2.77-3.29-5.27-3.29h-16.78l-1.28-.35v.17l-.16.17c.27,1.61.75,2.42,1.44,2.42v.17h-.16c-2.13-.81-3.2-2.13-3.2-3.98v-31.33c0-1.88,1.07-3.26,3.2-4.15h.16c-.96.75-1.44,1.67-1.44,2.76v.17l.16.17c.43-.23,1.01-.35,1.76-.35h15.66c2.66-.63,4-2.01,4-4.14v-.69l-.16-1.38c-.72-2.18-2.21-3.28-4.48-3.28h-19.98c-3.75,0-6.52.52-8.31,1.56-2.56,1.35-3.83,4.53-3.83,9.51v32c0,1.73.21,3.23.64,4.5,1.7,4.61,5.7,6.92,11.98,6.92Zm-6.04-51.39c.8,0,1.28.52,1.44,1.56v.35c-.56,2.08-1.57,3.11-3.04,3.11h-.64c-.43-.17-.75-.58-.96-1.21,0-1.96,1.07-3.23,3.2-3.81Z"/>
      <path class="cls-2" d="m339.42,89.82h.16c4.37-.26,6.55-1.24,6.55-2.94v-17.31c0-2.28,1.06-3.84,3.19-4.68h.16v.17c-.85.49-1.28,1.01-1.28,1.55l.32.35h7.82c1.92,0,3.35.58,4.31,1.73l-2.08-.35h-.16l-.16.17c.33,1.07.49,2.05.49,2.94v15.41c0,1.67,2.08,2.66,6.23,2.94,4.69,0,7.03-1.27,7.03-3.81v-33.91c0-6.2-1.17-10.52-3.51-12.98-3.03-2.77-6.12-4.15-9.26-4.15h-12.3c-5.32,0-9.05,1.21-11.18,3.63-1.92,1.5-2.87,5.36-2.87,11.59v36.16c0,2.31,2.18,3.46,6.55,3.46Zm6.71-42.41c0-2.19,1.01-3.81,3.03-4.85h.32v.17c-.85.49-1.28,1-1.28,1.55h.16l.16.18h7.18c2.31,0,3.96.58,4.95,1.73l-2.41-.35h-.16l-.16.17c.54,1.36.81,2.28.81,2.77v2.95c0,1.3-.16,2.46-.49,3.47v.17c.96,0,1.82-.17,2.57-.52h.16v.17c-1.46,1.16-3.01,1.73-4.63,1.73h-7.98l-.32.34c0,1.18.48,1.93,1.44,2.25v.17h-.16c-1.7,0-2.76-1.15-3.19-3.46v-8.66Zm-6.88-9.33c.69,0,1.22.35,1.6,1.04v1.04c0,1.47-1.01,2.45-3.04,2.94h-.16c-.96-.17-1.44-.63-1.44-1.38,0-1.64,1.01-2.86,3.04-3.63Z"/>
      <path class="cls-2" d="m385.11,89.82h1.92c3.94,0,5.91-1.21,5.91-3.64l-.16-16.45v-.69c0-2.37,1.12-3.98,3.35-4.85h.16v.17c-.96.6-1.44,1.18-1.44,1.73l.32.35h8.14c1.78,0,3.17.59,4.15,1.76l-2.09-.35-.48.17.49,1.9v16.79c0,1.82,1.97,2.86,5.91,3.11h1.44l1.76-.17c2.77-.4,4.15-1.44,4.15-3.12v-17.84c0-1.99-.59-3.66-1.76-5.02-1.36-1.41-2.58-2.22-3.67-2.42v-.17c3.2-1.87,4.8-4.29,4.8-7.26v-6.92c0-2.91-.48-5.39-1.44-7.44-1.87-3.46-6.12-5.19-12.78-5.19h-6.86l-1.12.18-.16-.18-.64.18h-7.34c-1.65,0-3.3.29-4.95.87-2.02,1.04-3.03,3.52-3.03,7.44v44.13c0,1.62,1.81,2.6,5.43,2.94Zm7.17-43.98c0-1.73,1.01-3.06,3.04-3.98h.16v.17c-.43,0-.85.57-1.28,1.72h.16l.16.18h8.94c2.66.53,4,1.12,4,1.77l-2.88-.35h-.64c.53,1.18.8,2.22.8,3.11v3.63c0,.86-.16,1.67-.48,2.42v.17l.16.17,3.03-.52c-.56,1.27-3.06,1.9-7.5,1.9h-2.87l-2.71-.18v.17l-.16.17v.35c0,.92.48,1.56,1.44,1.9v.17h-.16c-2.13-.55-3.2-1.65-3.2-3.29v-9.7Zm-9.26-5.17c0-1.56,1.07-2.6,3.2-3.11.83,0,1.3.52,1.44,1.56,0,1.7-1.07,2.86-3.2,3.46-.83,0-1.31-.52-1.44-1.56v-.35Z"/>
    </g>
  </g>
</svg>