<?xml version="1.0" encoding="UTF-8"?>
<svg id="Capa_2" data-name="Capa 2" xmlns="http://www.w3.org/2000/svg" viewBox="0 0 40.38 44.82">
  <defs>
    <style>
      .cls-1 {
        fill: #fff;
      }
    </style>
  </defs>
  <g id="Capa_1-2" data-name="Capa 1">
    <path class="cls-1" d="m30.06,44.82c-3.09-.55-6.07-1.54-8.77-3.18C10.5,35.09,3.02,25.68.22,12.35-.2,10.34,0,8.4.72,6.5c.97-2.55,1.35-3.09,3.32-4.82C5.91.04,8.07-.32,10.38.25c1.02.25,1.66.87,1.92,2.08.76,3.49,1.58,6.96,2.47,10.41.33,1.31.05,2.13-1.01,2.85-1.07.73-2.02,1.64-3.06,2.44-.57.44-.69.88-.33,1.57,2.96,5.72,6.95,10.37,12.05,13.92.57.39.95.35,1.38-.21.9-1.18,1.86-2.3,2.73-3.5.57-.79,1.2-1.04,2.07-.72,3.38,1.22,6.76,2.44,10.16,3.62.84.29,1.2.96,1.38,1.78.49,2.16.22,4.33-.98,6.06-2.51,3.61-4.88,3.96-9.11,4.28Z"/>
  </g>
</svg>